#!OML:ASF F:\VICON\USERDATA\INSTALL\rory3\rory3.ASF
:FULLY-SPECIFIED
:DEGREES
502
root 1.23117 17.923 5.40847 -3.57127 -2.33126 361.011
lowerback 19.8046 0.513806 -3.39876
upperback 0.145502 0.298967 3.5505
thorax -11.0413 0.447549 5.81454
lowerneck -10.4007 -0.395361 -3.12375
upperneck 21.7897 0.827568 -3.44676
head 8.50923 -0.214043 -0.546679
rclavicle 4.47266e-015 1.11319e-014
rhumerus -31.1301 -10.4141 -71.0535
rradius 42.8005
rwrist 16.9794
rhand -4.28472 -1.71078
rfingers 7.12502
rthumb 21.4805 -30.5398
lclavicle 4.47266e-015 1.11319e-014
lhumerus -46.3325 3.69115 81.4746
lradius 56.135
lwrist 9.55509
lhand -13.0608 50.2175
lfingers 7.12502
lthumb 13.0345 79.7902
rfemur -15.1617 1.68584 19.9042
rtibia 43.8694
rfoot -17.2317 -8.03636
rtoes 10.5976
lfemur -8.20739 -6.30016 -24.7052
ltibia 31.6215
lfoot -15.2092 2.00462
ltoes -0.817672
503
root 1.24113 17.9169 5.41636 -3.65809 -2.42555 360.94
lowerback 19.6983 0.665355 -3.36011
upperback 0.201467 0.516481 3.60659
thorax -10.9464 0.545731 5.78837
lowerneck -10.3883 -0.581901 -3.26899
upperneck 21.891 0.601546 -3.45003
head 8.54149 -0.334536 -0.547454
rclavicle -8.44835e-015 -2.46493e-014
rhumerus -30.6892 -12.879 -69.9197
rradius 38.9941
rwrist 13.026
rhand -2.59425 -2.5472
rfingers 7.12502
rthumb 23.1033 -31.182
lclavicle -8.44835e-015 -2.46493e-014
lhumerus -46.4162 3.40963 81.6738
lradius 56.6561
lwrist 9.40605
lhand -13.0265 51.2322
lfingers 7.12502
lthumb 13.0677 80.8028
rfemur -14.802 1.49787 20.1075
rtibia 43.3808
rfoot -17.575 -8.83772
rtoes 11.9762
lfemur -8.17608 -6.25151 -24.6941
ltibia 31.774
lfoot -15.28 2.17142
ltoes -1.94523
504
root 1.24974 17.9156 5.41696 -3.73504 -2.47284 360.688
lowerback 19.8152 0.791696 -3.1766
upperback 0.156143 0.736772 3.71139
thorax -11.0911 0.648446 5.73971
lowerneck -10.2948 -0.728808 -3.31808
upperneck 22.0597 0.426234 -3.52413
head 8.58208 -0.431194 -0.583199
rclavicle -6.85807e-015 3.02153e-014
rhumerus -30.7289 -15.275 -68.634
rradius 35.4681
rwrist 8.63973
rhand -1.83479 -2.61226
rfingers 7.12502
rthumb 23.8318 -31.154
lclavicle -6.85807e-015 3.02153e-014
lhumerus -46.4659 3.21304 81.7125
lradius 56.5725
lwrist 9.0377
lhand -12.8484 49.0565
lfingers 7.12502
lthumb 13.2393 78.616
rfemur -14.4758 1.49414 20.5071
rtibia 42.7558
rfoot -17.9228 -10.0344
rtoes 13.01
lfemur -8.21644 -6.05589 -24.4232
ltibia 31.9834
lfoot -15.3681 2.0047
ltoes -1.99554
505
root 1.26126 17.9143 5.41359 -3.80033 -2.32331 360.591
lowerback 19.8165 0.869992 -3.0056
upperback 0.230172 0.88199 3.73919
thorax -11.024 0.704836 5.62721
lowerneck -10.6625 -0.788364 -3.36154
upperneck 22.3713 0.37007 -3.45569
head 8.75674 -0.464327 -0.562955
rclavicle -1.07344e-014 3.18055e-015
rhumerus -30.6344 -18.0902 -67.2401
rradius 32.0867
rwrist 5.18359
rhand -1.44804 -2.62752
rfingers 7.12502
rthumb 24.2027 -31.1203
lclavicle -1.07344e-014 3.18055e-015
lhumerus -46.2021 2.97808 81.7348
lradius 56.5888
lwrist 8.37818
lhand -11.9689 48.2783
lfingers 7.12502
lthumb 14.087 77.7809
rfemur -14.1771 1.21766 20.665
rtibia 42.1222
rfoot -18.5039 -10.7876
rtoes 13.177
lfemur -8.25079 -5.98449 -24.3489
ltibia 32.1638
lfoot -15.4226 1.75938
ltoes -1.34838
506
root 1.27798 17.9051 5.4212 -3.89535 -2.26276 360.573
lowerback 19.546 0.954646 -2.82819
upperback 0.439645 1.03559 3.75153
thorax -10.651 0.753773 5.48386
lowerneck -8.23706 -1.41871 -2.26821
upperneck 19.209 -0.571557 -5.28433
head 7.24215 -0.899678 -1.38787
rclavicle -2.38542e-015 3.18055e-015
rhumerus -30.544 -21.5476 -65.577
rradius 29.0313
rwrist 3.84787
rhand -1.36491 -3.786
rfingers 7.12502
rthumb 24.2824 -32.2682
lclavicle -2.38542e-015 3.18055e-015
lhumerus -45.9385 2.74672 81.8813
lradius 57.0087
lwrist 8.2127
lhand -10.5045 48.9469
lfingers 7.12502
lthumb 15.4978 78.3457
rfemur -13.8514 0.811665 20.6864
rtibia 41.5683
rfoot -19.1354 -11.1106
rtoes 13.1337
lfemur -8.21789 -5.98945 -24.4293
ltibia 32.3805
lfoot -15.4949 1.82902
ltoes -1.36633
507
root 1.29172 17.8968 5.43207 -4.03836 -2.19028 360.779
lowerback 19.4166 1.056 -2.92061
upperback 0.547088 1.14752 3.73905
thorax -10.4726 0.80439 5.48743
lowerneck -10.7985 -1.1451 -3.80712
upperneck 22.168 -0.0348005 -3.45681
head 8.71581 -0.687202 -0.530749
rclavicle -6.26172e-015 1.51076e-014
rhumerus -31.0146 -25.7372 -63.2367
rradius 26.0256
rwrist 4.12279
rhand -1.86968 -4.24118
rfingers 7.12502
rthumb 23.7984 -32.7872
lclavicle -6.26172e-015 1.51076e-014
lhumerus -45.8049 2.53216 82.0484
lradius 57.1237
lwrist 8.04361
lhand -9.81227 49.4257
lfingers 7.12502
lthumb 16.1644 78.7717
rfemur -13.4665 0.354287 20.4783
rtibia 41.1541
rfoot -19.3254 -11.5537
rtoes 13.4716
lfemur -8.11692 -6.13261 -24.7732
ltibia 32.5446
lfoot -15.5793 1.98252
ltoes -1.16874
508
root 1.30437 17.8963 5.42276 -3.82409 -2.10405 360.577
lowerback 19.2709 1.08921 -2.58011
upperback 0.50625 1.27774 3.81133
thorax -10.4463 0.851207 5.33273
lowerneck -10.8272 -1.25151 -3.97238
upperneck 22.2307 -0.162582 -3.37699
head 8.74413 -0.753962 -0.490477
rclavicle 1.04362e-014 0
rhumerus -32.0345 -29.849 -60.6504
rradius 23.6186
rwrist 4.63297
rhand -3.02214 -3.83046
rfingers 7.12502
rthumb 22.6927 -32.5162
lclavicle 1.04362e-014 0
lhumerus -45.5938 2.53758 82.1001
lradius 57.0318
lwrist 7.68831
lhand -10.1517 49.085
lfingers 7.12502
lthumb 15.8376 78.4572
rfemur -13.4609 0.0899115 20.7608
rtibia 40.8312
rfoot -19.2411 -12.1081
rtoes 13.5806
lfemur -8.51244 -6.32858 -24.5833
ltibia 32.7377
lfoot -15.6101 1.98834
ltoes -1.38461
509
root 1.31539 17.8947 5.42284 -3.75079 -2.07128 360.567
lowerback 19.1801 1.20009 -2.45986
upperback 0.493837 1.45321 3.81816
thorax -10.4265 0.928266 5.22029
lowerneck -10.9248 -1.3583 -4.04723
upperneck 22.3174 -0.307517 -3.28183
head 8.79282 -0.820747 -0.462758
rclavicle 2.68359e-015 -2.22639e-014
rhumerus -33.3076 -31.9186 -59.0616
rradius 23.0651
rwrist 3.21691
rhand -5.30302 -6.35109
rfingers 7.12502
rthumb 20.5022 -35.2886
lclavicle 2.68359e-015 -2.22639e-014
lhumerus -45.5347 2.5504 82.0847
lradius 57.0749
lwrist 7.29158
lhand -10.6338 48.5273
lfingers 7.12502
lthumb 15.3733 77.9357
rfemur -13.2901 0.091334 20.7908
rtibia 40.5854
rfoot -19.2939 -12.5479
rtoes 12.3199
lfemur -8.70648 -6.42422 -24.6251
ltibia 32.9046
lfoot -15.6519 2.11436
ltoes -2.25994
510
root 1.32086 17.8936 5.42281 -3.86058 -2.29307 360.418
lowerback 19.3155 1.40204 -2.26285
upperback 0.528259 1.76711 3.86023
thorax -10.4946 1.06877 5.06438
lowerneck -10.8927 -1.51501 -4.23812
upperneck 22.2401 -0.535925 -3.08537
head 8.76282 -0.920935 -0.38786
rclavicle -4.07509e-015 1.43125e-014
rhumerus -34.944 -33.6924 -57.3461
rradius 22.9983
rwrist 2.69609
rhand -7.34973 -8.16282
rfingers 7.12502
rthumb 18.5344 -37.2998
lclavicle -4.07509e-015 1.43125e-014
lhumerus -45.6776 2.48374 82.0733
lradius 57.453
lwrist 7.10921
lhand -11.0073 49.4519
lfingers 7.12502
lthumb 15.0135 78.8876
rfemur -13.0138 0.678532 20.9954
rtibia 40.3744
rfoot -19.5079 -12.8526
rtoes 11.4061
lfemur -8.70188 -6.43801 -24.5035
ltibia 33.0797
lfoot -15.7019 2.28471
ltoes -2.21215
511
root 1.32739 17.8929 5.41747 -3.90875 -2.381 360.28
lowerback 19.3028 1.52117 -2.01904
upperback 0.714543 1.97747 3.89624
thorax -10.2946 1.14974 4.90067
lowerneck -11.0445 -1.65181 -4.16188
upperneck 21.9945 -0.708836 -3.22373
head 8.70684 -1.00522 -0.464962
rclavicle 4.37326e-015 -1.11319e-014
rhumerus -36.4731 -36.4776 -55.1475
rradius 22.4668
rwrist 3.50003
rhand -8.98016 -7.6326
rfingers 7.12502
rthumb 16.9655 -36.9117
lclavicle 4.37326e-015 -1.11319e-014
lhumerus -45.4016 2.52209 82.0469
lradius 57.7308
lwrist 7.27905
lhand -11.2801 50.4849
lfingers 7.12502
lthumb 14.7507 79.94
rfemur -12.9302 1.20042 21.1222
rtibia 40.2343
rfoot -19.6104 -12.7927
rtoes 11.4625
lfemur -8.72293 -6.52142 -24.3927
ltibia 33.1487
lfoot -15.6467 2.35614
ltoes -1.53958
512
root 1.34132 17.891 5.4114 -3.81627 -2.22162 360.414
lowerback 19.1963 1.5633 -1.91568
upperback 0.800874 2.04697 3.8325
thorax -10.1391 1.17142 4.74886
lowerneck -11.1894 -1.78824 -4.20101
upperneck 21.9163 -0.88314 -3.22581
head 8.70817 -1.08946 -0.478538
rclavicle -1.50082e-014 -2.22639e-014
rhumerus -38.7212 -40.1718 -51.7337
rradius 21.1864
rwrist 5.65201
rhand -10.3029 -3.72554
rfingers 7.12502
rthumb 15.692 -33.1093
lclavicle -1.50082e-014 -2.22639e-014
lhumerus -45.2345 2.52124 82.0514
lradius 57.9421
lwrist 7.64133
lhand -11.6406 50.1964
lfingers 7.12502
lthumb 14.4033 79.6767
rfemur -13.0578 1.44776 20.829
rtibia 40.1838
rfoot -19.4963 -12.6163
rtoes 11.9674
lfemur -8.84531 -6.71505 -24.6048
ltibia 33.1128
lfoot -15.5026 2.36911
ltoes -1.7976
513
root 1.35494 17.8916 5.40849 -3.75778 -1.96772 360.672
lowerback 19.0951 1.54379 -1.98511
upperback 0.850569 1.99586 3.74499
thorax -10.0205 1.14511 4.70529
lowerneck -11.3233 -1.88014 -4.31527
upperneck 22.0079 -1.01267 -3.06259
head 8.76671 -1.14566 -0.420712
rclavicle 2.5842e-015 0
rhumerus -40.1054 -41.1634 -50.4253
rradius 21.496
rwrist 5.09443
rhand -12.1808 -3.91513
rfingers 7.12502
rthumb 13.8828 -33.4318
lclavicle 2.5842e-015 0
lhumerus -45.2701 2.57814 82.0131
lradius 58.0738
lwrist 8.30205
lhand -12.7465 48.526
lfingers 7.12502
lthumb 13.3375 78.0791
rfemur -13.1691 1.61188 20.3834
rtibia 40.1916
rfoot -19.5657 -12.3224
rtoes 12.63
lfemur -8.89911 -6.94453 -24.9586
ltibia 33.0337
lfoot -15.3515 2.35564
ltoes -1.81288
514
root 1.36857 17.8965 5.41387 -3.81979 -1.81601 360.922
lowerback 18.9154 1.56311 -2.05997
upperback 1.01498 1.99564 3.68654
thorax -9.73735 1.13923 4.68201
lowerneck -11.2439 -2.01967 -4.48572
upperneck 21.8126 -1.22683 -2.87013
head 8.68923 -1.23517 -0.347663
rclavicle 1.60022e-014 -9.54166e-015
rhumerus -41.0159 -41.1093 -49.9875
rradius 22.2498
rwrist 3.39385
rhand -14.0117 -3.75988
rfingers 7.12502
rthumb 12.1178 -33.389
lclavicle 1.60022e-014 -9.54166e-015
lhumerus -45.3095 2.77242 81.9319
lradius 58.3517
lwrist 8.32426
lhand -12.659 47.2842
lfingers 7.12502
lthumb 13.4219 76.8318
rfemur -13.1591 1.78264 19.9754
rtibia 40.253
rfoot -19.8594 -11.7953
rtoes 13.9155
lfemur -8.76075 -7.19468 -25.3251
ltibia 32.9263
lfoot -15.2763 2.42898
ltoes -1.19739
515
root 1.38147 17.8984 5.42 -3.95495 -1.6796 360.763
lowerback 18.9903 1.48159 -1.77281
upperback 1.07294 1.95314 3.74142
thorax -9.70263 1.10577 4.58791
lowerneck -10.9548 -2.04974 -4.40623
upperneck 21.5053 -1.31351 -2.87072
head 8.53021 -1.26089 -0.363874
rclavicle 5.1684e-015 1.90833e-014
rhumerus -42.0133 -40.8426 -49.5459
rradius 23.1933
rwrist 1.65946
rhand -15.3375 -3.45593
rfingers 7.12502
rthumb 10.8392 -33.1562
lclavicle 5.1684e-015 1.90833e-014
lhumerus -45.7301 3.093 81.7573
lradius 58.7221
lwrist 8.49997
lhand -11.5363 46.6716
lfingers 7.12502
lthumb 14.5038 76.1446
rfemur -13.0001 1.84127 20.06
rtibia 40.3037
rfoot -19.55 -11.4144
rtoes 16.5019
lfemur -8.56103 -7.30293 -25.2234
ltibia 32.8545
lfoot -15.1895 2.40486
ltoes -0.942341
